<svg width="32" height="32" viewBox="0 0 32 32" xmlns="http://www.w3.org/2000/svg">
    <title>Briefcase</title>
    <path d="M30.828 9.099c.778 3.244 1.167 6.432 1.167 9.566 0 3.089-.378 6.311-1.133 9.665-.222.933-.811 1.478-1.767 1.633-4.4.644-8.766.967-13.098.967-4.333 0-8.699-.322-13.098-.967-.955-.156-1.544-.7-1.767-1.633-.755-3.356-1.133-6.577-1.133-9.665 0-3.088.378-6.277 1.133-9.566.111-.489.361-.883.749-1.184.389-.301.839-.45 1.35-.45h4.233v-4.732c0-.511.161-.967.483-1.367.322-.4.738-.644 1.25-.733 2.178-.423 4.444-.634 6.799-.634 2.355 0 4.621.211 6.799.634.511.111.928.361 1.25.749.322.389.483.839.484 1.35v4.732h4.233c.511 0 .961.15 1.35.45.389.3.627.694.716 1.184zm-19.098-4.665v3.033h8.532v-3.033c-2.844-.334-5.688-.334-8.532 0z" />
</svg>
