<svg width="32" height="32" viewBox="0 0 32 32" xmlns="http://www.w3.org/2000/svg">
    <title>Chat</title>
    <path d="M31.533 5.888c.309 1.952.464 4.023.464 6.213 0 2.166-.155 4.214-.464 6.143-.191 1.262-.887 2.417-2.089 3.465s-2.47 1.643-3.803 1.785c-2.619.262-5.202.405-7.75.429l-6.82 6.607c-.214.214-.476.321-.785.321-.119 0-.273-.024-.464-.072-.453-.191-.679-.547-.679-1.071v-5.857l-2.786-.214c-1.309-.142-2.571-.755-3.786-1.838-1.215-1.083-1.929-2.268-2.143-3.553-.286-1.999-.429-4.035-.429-6.106 0-2.143.143-4.226.429-6.249.214-1.285.929-2.47 2.143-3.553 1.215-1.083 2.477-1.696 3.786-1.838 3.333-.333 6.547-.499 9.641-.499 3.094 0 6.308.166 9.641.499 1.309.142 2.571.755 3.786 1.838 1.215 1.083 1.917 2.268 2.106 3.553l.001-.003z" />
</svg>
