<svg width="32" height="32" viewBox="0 0 32 32" xmlns="http://www.w3.org/2000/svg">
    <title>Coffee</title>
    <path d="M11.6 7.356c1.338-1.237 3.678-2.14 4.213-3.611.535-1.505-.368-3.009-1.471-3.745 0 1.572-.435 2.24-1.505 3.043-1.07.803-4.28 2.14-5.751 3.645-1.505 1.505-1.806 2.842-1.806 2.842h5.116s.1-1.17 1.204-2.173zm7.691 2.173s2.307-1.772 1.973-3.979c-.268-2.073-2.006-3.377-2.006-3.377s.368 1.338-.1 2.508c-.502 1.17-2.24 1.839-3.344 3.009-.97 1.003-.903 1.839-.903 1.839h4.38zm-.97 22.47c.769 0 1.505-.401 1.873-1.07.067-.1.669-1.271 1.371-2.943.836-.067 2.006-.234 3.21-.502 3.411-.836 5.684-3.243 6.086-6.454.368-2.842-.568-4.481-1.404-5.383-1.204-1.304-3.043-1.906-5.25-1.772-.535.033-1.037.1-1.505.167-.268-.803-.535-1.237-.635-1.371-.401-.602-1.07-1.003-1.772-1.003h-16.084c-.702 0-1.371.368-1.772.97-.234.368-1.438 2.408-1.438 7.189 0 5.083 3.143 10.834 3.277 11.101.401.669 1.103 1.07 1.873 1.07h12.171zm4.414-7.356c.435-1.538.736-3.21.736-4.815 0-1.003-.033-1.906-.134-2.675l1.07-.1c.836-.067 2.04.033 2.708.769.702.702.702 1.906.602 2.809-.334 2.642-2.708 3.511-3.712 3.745-.435.134-.869.201-1.271.268z" />
</svg>
