<?xml version="1.0" encoding="UTF-8" standalone="no"?>
<svg width="16px" height="16px" viewBox="0 0 16 16" version="1.1" xmlns="http://www.w3.org/2000/svg" xmlns:xlink="http://www.w3.org/1999/xlink" xmlns:sketch="http://www.bohemiancoding.com/sketch/ns">
    <!-- Generator: Sketch 3.4.2 (15855) - http://www.bohemiancoding.com/sketch -->
    <title>cross</title>
    <desc>Created with Sketch.</desc>
    <defs></defs>
    <g id="Page-1" stroke="none" stroke-width="1" fill="none" fill-rule="evenodd" sketch:type="MSPage">
        <g id="cross" sketch:type="MSLayerGroup" fill="#000000">
            <path d="M11.0833793,7.79157933 L15.0208933,3.85406533 C15.3750613,3.49989733 15.4375613,2.979062 15.1667273,2.66656133 C14.562558,1.89572533 13.8958893,1.229056 13.1250533,0.624887333 C12.812552,0.354053333 12.2917167,0.416553333 11.9375493,0.770721333 L8.00003533,4.541568 L4.041688,0.770721333 C3.70835333,0.416553333 3.187518,0.354053333 2.854184,0.624887333 C2.10418133,1.229056 1.437512,1.89572533 0.833343333,2.66656133 C0.562509333,2.979062 0.625009333,3.49989733 0.979177333,3.85406533 L4.91669067,7.79157933 L0.958344,11.7499267 C0.625009333,12.0832607 0.562509333,12.604096 0.833343333,12.9374307 C1.437512,13.6874333 2.10418133,14.354102 2.854184,14.9582713 C3.187518,15.2291053 3.70835333,15.1666053 4.041688,14.8332707 L8.00003533,10.8749233 L11.9375493,14.8332707 C12.2917167,15.1666053 12.812552,15.2291053 13.1250533,14.9582713 C13.8958893,14.354102 14.562558,13.6874333 15.1667273,12.9165973 C15.4375613,12.604096 15.3750613,12.0832607 15.0208933,11.7499267 L11.0833793,7.79157933 Z" id="Shape" sketch:type="MSShapeGroup"></path>
        </g>
    </g>
</svg>