<?xml version="1.0" encoding="UTF-8" standalone="no"?>
<svg width="32px" height="32px" viewBox="0 0 32 32" version="1.1" xmlns="http://www.w3.org/2000/svg" xmlns:xlink="http://www.w3.org/1999/xlink" xmlns:sketch="http://www.bohemiancoding.com/sketch/ns">
    <!-- Generator: Sketch 3.3.2 (12043) - http://www.bohemiancoding.com/sketch -->
    <title>Artboard 1</title>
    <desc>Created with Sketch.</desc>
    <defs></defs>
    <path d="M16,32 C7.178,32 0,24.822 0,16 C0,7.178 7.178,0 16,0 C24.823,0 32,7.178 32,16 C32,24.822 24.823,32 16,32 L16,32 Z M29.494,18.19 C29.026,18.043 25.264,16.92 20.981,17.606 C22.769,22.518 23.496,26.519 23.636,27.35 C26.702,25.277 28.885,21.993 29.494,18.19 L29.494,18.19 Z M21.338,28.601 C21.135,27.402 20.342,23.224 18.423,18.237 C18.393,18.248 18.363,18.257 18.333,18.268 C10.625,20.954 7.857,26.3 7.611,26.802 C9.929,28.609 12.841,29.687 16,29.687 C17.893,29.687 19.698,29.3 21.338,28.601 L21.338,28.601 Z M5.847,25.159 C6.156,24.629 9.907,18.418 16.956,16.14 C17.134,16.082 17.314,16.028 17.494,15.977 C17.151,15.201 16.777,14.424 16.386,13.658 C9.561,15.701 2.939,15.616 2.34,15.603 C2.336,15.742 2.333,15.881 2.333,16.021 C2.333,19.531 3.664,22.736 5.847,25.159 L5.847,25.159 Z M2.622,13.222 C3.233,13.23 8.864,13.254 15.257,11.557 C12.992,7.531 10.55,4.147 10.19,3.653 C6.366,5.456 3.508,8.981 2.622,13.222 L2.622,13.222 Z M12.797,2.734 C13.175,3.24 15.657,6.62 17.897,10.735 C22.756,8.914 24.814,6.148 25.06,5.798 C22.646,3.657 19.473,2.354 16,2.354 C14.897,2.354 13.825,2.487 12.797,2.734 L12.797,2.734 Z M26.579,7.378 C26.291,7.769 24,10.704 18.947,12.767 C19.266,13.418 19.57,14.08 19.854,14.747 C19.955,14.983 20.053,15.218 20.148,15.452 C24.696,14.88 29.214,15.796 29.665,15.892 C29.635,12.666 28.482,9.704 26.579,7.378 L26.579,7.378 Z" id="dribbble" sketch:type="MSShapeGroup"></path>
</svg>