<svg width="32" height="32" viewBox="0 0 32 32" xmlns="http://www.w3.org/2000/svg">
    <title>Feather</title>
    <path d="M2.993 30.045c1.467-.967 3.201-2.234 4.802-3.435 1 .1 2.167.067 3.468.067 4.102 0 9.837-.734 14.039-4.835.867-.834 1.634-2.034 2.301-3.035-1.801-.5-3.601-1.067-5.769-1.867-.3-.1-.433-.4-.333-.7.1-.233.333-.367.567-.367 3.401.067 5.302.1 7.169.033 1.034-2.201 1.701-4.202 2.101-6.302-1.467 0-3.535.067-6.136-.1-.3-.033-.534-.267-.5-.6 0-.4.333-.433.434-.5 2.668-.634 5.269-1.534 6.703-2.201.267-2.868.133-4.902.1-5.135-.033-.5-.433-.934-.967-.967-.067 0-1.134-.1-2.868-.1-5.035 0-14.339.8-19.908 6.202-4.468 4.368-5.002 9.87-4.935 13.839 4.935-5.335 13.705-10.971 14.772-10.071.167.133.167.3-.267.6-6.402 4.435-15.139 13.238-17.407 18.274-.9 1.667-.133 3.068 2.634 1.2z" />
</svg>
