<svg width="32" height="32" viewBox="0 0 32 32" xmlns="http://www.w3.org/2000/svg">
    <title>Google+</title>
    <path d="M31.222 6.427v2.325h-4.649v4.651h-2.325v-4.651h-4.649v-2.325h4.649v-4.649h2.325v4.649h4.649zm-11.751 18.071c0 2.089-.997 3.778-2.542 5.122-2.089 1.799-4.94 2.38-7.628 2.38-3.396 0-8.3-1.452-8.3-5.666 0-.853.292-1.691.674-2.453 1.614-3.268 6.663-4.105 9.915-4.196-.597-.78-1.161-1.687-1.161-2.706 0-.599.215-.999.4-1.561-.437.053-.853.091-1.271.091-3.524 0-6.574-2.597-6.574-6.249 0-3.451 2.668-6.393 5.973-7.118 1.109-.238 2.251-.364 3.396-.364h7.94l-2.452 1.435h-2.455c1.801 1.125 2.708 3.324 2.708 5.358 0 4.812-4.069 5.175-4.069 7.573 0 2.343 5.449 3.269 5.449 8.354zm-4.738-14.092c0-2.761-1.492-7.319-4.852-7.319-2.377 0-3.54 2.107-3.54 4.251 0 2.759 1.815 7.083 5.049 7.083 2.485-.002 3.342-1.799 3.342-4.014zm2.178 15.655c0-2.542-2.382-3.959-4.233-5.25-.309-.036-.601-.036-.91-.036-2.976 0-7.41.944-7.41 4.722 0 3.486 3.924 4.832 6.83 4.832 2.706 0 5.723-1.09 5.723-4.268z" />
</svg>
