<svg width="32" height="32" viewBox="0 0 32 32" xmlns="http://www.w3.org/2000/svg">
    <title>LinkedIn</title>
    <path d="M1.314 10.961h6.472v19.432h-6.472v-19.432zm3.275-9.353c-2.197 0-3.648 1.451-3.648 3.354 0 1.862 1.393 3.352 3.569 3.352h.04c2.255 0 3.667-1.491 3.648-3.352-.021-1.903-1.393-3.354-3.608-3.354zm19.038 8.902c-3.443 0-4.975 1.886-5.824 3.217v-2.765h-6.451s.079 1.824 0 19.432h6.451v-10.844c0-.587.06-1.158.215-1.587.472-1.158 1.528-2.353 3.317-2.353 2.33 0 3.272 1.784 3.272 4.392v10.392h6.453v-11.138c0-5.961-3.177-8.745-7.432-8.745z" />
</svg>
