<?xml version="1.0" encoding="UTF-8" standalone="no"?>
<svg width="545px" height="545px" viewBox="0 0 545 545" version="1.1" xmlns="http://www.w3.org/2000/svg" xmlns:xlink="http://www.w3.org/1999/xlink" xmlns:sketch="http://www.bohemiancoding.com/sketch/ns">
    <!-- Generator: Sketch 3.3.1 (12002) - http://www.bohemiancoding.com/sketch -->
    <title>Artboard 1</title>
    <desc>Created with Sketch.</desc>
    <defs>
        <path d="M482.249127,394.000636 C497.094218,369.613573 508.038394,342.590539 514.215087,313.798104 L502.666667,313.798104 L502.666667,322.152535 L498.333333,322.152535 L494.333333,255.317092 L486,255.317092 L486,247.965193 L481.833333,247.965193 L481.833333,244.790509 L475.5,244.790509 L473.5,215.550003 L471.5,244.790509 L465.166667,244.790509 L465.166667,247.965193 L461,247.965193 L461,255.317092 L452.666667,255.317092 L448.166667,330.506965 L444.333333,330.506965 L444.333333,313.798104 L436.166667,313.798104 L436.166667,305.443674 L437.666667,305.443674 C439,305.443674 440.166667,304.274054 440.166667,302.937345 L440.166667,299.595573 C440.166667,298.258864 439,297.089244 437.666667,297.089244 L423.5,297.089244 C423.5,287.89937 416,280.380383 406.833333,280.380383 C397.666667,280.380383 390.166667,287.89937 390.166667,297.089244 L376.166667,297.089244 C374.833333,297.089244 373.666667,298.258864 373.666667,299.595573 L373.666667,302.937345 C373.666667,304.274054 374.833333,305.443674 376.166667,305.443674 L377.666667,305.443674 L377.666667,347.215826 L369.333333,347.215826 L369.333333,338.861395 L352.666667,338.861395 L352.666667,347.215826 L350.5,347.215826 L350.5,326.663927 L352.166667,326.663927 C353.5,326.663927 354.666667,325.494307 354.666667,324.157598 L354.666667,320.815826 C354.666667,319.479117 353.5,318.309497 352.166667,318.309497 L304.166667,318.309497 C302.833333,318.309497 301.666667,319.479117 301.666667,320.815826 L301.666667,324.157598 C301.666667,325.494307 302.833333,326.663927 304.166667,326.663927 L305.833333,326.663927 L305.833333,352.228484 L278.5,352.228484 L260.833333,300.431016 L243.166667,352.228484 L216,352.228484 L216,326.663927 L217.666667,326.663927 C219,326.663927 220.166667,325.494307 220.166667,324.157598 L220.166667,320.815826 C220.166667,319.479117 219,318.309497 217.666667,318.309497 L169.666667,318.309497 C168.333333,318.309497 167.166667,319.479117 167.166667,320.815826 L167.166667,324.157598 C167.166667,325.494307 168.333333,326.663927 169.666667,326.663927 L171.333333,326.663927 L171.333333,347.215826 L169.333333,347.215826 L169.333333,338.861395 L152.666667,338.861395 L152.666667,347.215826 L144.333333,347.215826 L144.333333,305.443674 L145.833333,305.443674 C147.166667,305.443674 148.333333,304.274054 148.333333,302.937345 L148.333333,299.595573 C148.333333,298.258864 147.166667,297.089244 145.833333,297.089244 L131.666667,297.089244 C131.666667,287.89937 124.166667,280.380383 115,280.380383 C105.833333,280.380383 98.3333333,287.89937 98.3333333,297.089244 L84.1666667,297.089244 C82.8333333,297.089244 81.6666667,298.258864 81.6666667,299.595573 L81.6666667,302.937345 C81.6666667,304.274054 82.8333333,305.443674 84.1666667,305.443674 L85.6666667,305.443674 L85.6666667,313.798104 L77.6666667,313.798104 L77.6666667,330.506965 L73.8333333,330.506965 L69.3333333,255.317092 L61,255.317092 L61,247.965193 L56.8333333,247.965193 L56.8333333,244.790509 L50.5,244.790509 L48.5,215.550003 L46.5,244.790509 L40.1666667,244.790509 L40.1666667,247.965193 L36,247.965193 L36,255.317092 L27.6666667,255.317092 L23.6666667,322.152535 L19.3333333,322.152535 L19.3333333,313.798104 L5.78491313,313.798104 C11.9616056,342.590539 22.9057824,369.613573 37.7508734,394.000636 L482.249127,394.000636 Z" id="path-1"></path>
        <path d="M56,14 L56,0 L16,0 L16,14 L15.0016723,14 C14.4498156,14 14,14.4519098 14,15.0093689 L14,16.9906311 C14,17.5566468 14.448464,18 15.0016723,18 L56.9983277,18 C57.5501844,18 58,17.5480902 58,16.9906311 L58,15.0093689 C58,14.4433532 57.551536,14 56.9983277,14 L56,14 Z M16,18 L56,18 L70.1883059,37.8636283 C73.3980159,42.3572223 71.5274312,46 66.0095352,46 L5.99046484,46 C0.472883464,46 -1.39560894,42.3538525 1.81169408,37.8636283 L16,18 Z" id="path-3"></path>
        <path d="M56,14 L56,0 L16,0 L16,14 L15.0016723,14 C14.4498156,14 14,14.4519098 14,15.0093689 L14,16.9906311 C14,17.5566468 14.448464,18 15.0016723,18 L56.9983277,18 C57.5501844,18 58,17.5480902 58,16.9906311 L58,15.0093689 C58,14.4433532 57.551536,14 56.9983277,14 L56,14 Z M16,18 L56,18 L70.1883059,37.8636283 C73.3980159,42.3572223 71.5274312,46 66.0095352,46 L5.99046484,46 C0.472883464,46 -1.39560894,42.3538525 1.81169408,37.8636283 L16,18 Z" id="path-5"></path>
    </defs>
    <g id="Page-1" stroke="none" stroke-width="1" fill="none" fill-rule="evenodd" sketch:type="MSPage">
        <g id="Artboard-1" sketch:type="MSArtboardGroup">
            <g id="ad-machine" sketch:type="MSLayerGroup">
                <g id="background" transform="translate(5.000000, 0.000000)">
                    <path d="M482.854777,394 C506.435258,354.867551 520,309.017883 520,260 C520,116.405965 403.594035,0 260,0 C116.405965,0 0,116.405965 0,260 C0,309.017883 13.5647421,354.867551 37.1452228,394 L482.854777,394 Z" id="blue-oval" fill="#229EE0" sketch:type="MSShapeGroup"></path>
                    <mask id="mask-2" sketch:name="city " fill="white">
                        <use xlink:href="#path-1"></use>
                    </mask>
                    <use id="city-" fill-opacity="0.05" fill="#000000" sketch:type="MSShapeGroup" xlink:href="#path-1"></use>
                </g>
                <path d="M386.375,135.986 C386.324,135.986 386.275,135.993 386.224,135.994 C386.314,135.27 386.375,134.538 386.375,133.79 C386.375,123.965 378.41,116 368.585,116 C360.332,116 353.411,121.629 351.402,129.251 C349.105,127.777 346.38,126.911 343.449,126.911 C335.299,126.911 328.692,133.518 328.692,141.668 C328.692,142.239 328.732,142.8 328.795,143.354 C328.289,143.284 327.776,143.236 327.251,143.236 C321.037,143.236 316,148.273 316,154.486 C316,160.699 321.037,165.736 327.25,165.736 L386.375,165.736 C394.59,165.736 401.25,159.076 401.25,150.861 C401.25,142.646 394.59,135.986 386.375,135.986 L386.375,135.986 Z" id="cloud" opacity="0.06" fill="#FFFFFF" sketch:type="MSShapeGroup"></path>
                <path d="M171.474484,70.023319 C171.474484,62.2785686 165.195916,56 157.451165,56 C150.945575,56 145.48996,60.4371705 143.906326,66.4453626 C142.09567,65.283453 139.947635,64.6008113 137.637217,64.6008113 C131.212818,64.6008113 126.00472,69.8089096 126.00472,76.2333082 C126.00472,76.6834102 126.036251,77.1256295 126.085912,77.562331 C125.687047,77.5071521 125.282665,77.4693152 124.868823,77.4693152 C119.970515,77.4693152 116,81.4398299 116,86.3373499 C116,91.23487 119.970515,95.2053847 124.868035,95.2053847 L171.474484,95.2053847 C177.95012,95.2053847 183.199997,89.9555081 183.199997,83.4798721 C183.199997,77.004236 177.95012,71.7543594 171.474484,71.7543594 C171.4264,71.1899583 171.474484,70.6129448 171.474484,70.023319 Z" id="cloud" opacity="0.06" fill="#FFFFFF" sketch:type="MSShapeGroup"></path>
                <g id="lower-machine" transform="translate(170.000000, 394.000000)">
                    <g id="advert" transform="translate(132.000000, 98.000000)">
                        <rect id="background" fill="#63B55A" sketch:type="MSShapeGroup" x="0" y="0" width="40" height="40" rx="3"></rect>
                        <text id="Ad" sketch:type="MSTextLayer" font-family="Open Sans" font-size="16" font-weight="bold" fill="#FFFFFF">
                            <tspan x="9" y="27">Ad</tspan>
                        </text>
                        <g id="ad-bar" sketch:type="MSShapeGroup">
                            <rect id="ad-bar-background" fill="#343E48" x="0" y="0" width="40" height="6" rx="9"></rect>
                            <circle id="ad-bar-circle" fill="#82848A" cx="10" cy="3" r="1"></circle>
                            <circle id="ad-bar-circle" fill="#82848A" cx="7" cy="3" r="1"></circle>
                            <circle id="ad-bar-circle" fill="#82848A" cx="4" cy="3" r="1"></circle>
                        </g>
                        <path d="M0,3.0065012 C0,1.34605644 0.949316621,0.949316621 2.12233193,2.12233193 L37.8776681,37.8776681 C39.0497996,39.0497996 38.6576906,40 36.9934988,40 L3.0065012,40 C1.34605644,40 0,38.6576906 0,36.9934988 L0,3.0065012 Z" id="shadow" fill-opacity="0.049999997" fill="#000000" sketch:type="MSShapeGroup"></path>
                    </g>
                    <g id="advert" transform="translate(30.000000, 111.000000)">
                        <rect id="background" fill="#63B55A" sketch:type="MSShapeGroup" x="0" y="0" width="40" height="40" rx="3"></rect>
                        <text id="Ad" sketch:type="MSTextLayer" font-family="Open Sans" font-size="16" font-weight="bold" fill="#FFFFFF">
                            <tspan x="9" y="27">Ad</tspan>
                        </text>
                        <g id="ad-bar" sketch:type="MSShapeGroup">
                            <rect id="ad-bar-background" fill="#343E48" x="0" y="0" width="40" height="6" rx="9"></rect>
                            <circle id="ad-bar-circle" fill="#82848A" cx="10" cy="3" r="1"></circle>
                            <circle id="ad-bar-circle" fill="#82848A" cx="7" cy="3" r="1"></circle>
                            <circle id="ad-bar-circle" fill="#82848A" cx="4" cy="3" r="1"></circle>
                        </g>
                        <path d="M0,3.0065012 C0,1.34605644 0.949316621,0.949316621 2.12233193,2.12233193 L37.8776681,37.8776681 C39.0497996,39.0497996 38.6576906,40 36.9934988,40 L3.0065012,40 C1.34605644,40 0,38.6576906 0,36.9934988 L0,3.0065012 Z" id="shadow" fill-opacity="0.049999997" fill="#000000" sketch:type="MSShapeGroup"></path>
                    </g>
                    <g id="advert" transform="translate(30.000000, 59.000000)">
                        <rect id="background" fill="#63B55A" sketch:type="MSShapeGroup" x="0" y="0" width="40" height="40" rx="3"></rect>
                        <text id="Ad" sketch:type="MSTextLayer" font-family="Open Sans" font-size="16" font-weight="bold" fill="#FFFFFF">
                            <tspan x="9" y="27">Ad</tspan>
                        </text>
                        <g id="ad-bar" sketch:type="MSShapeGroup">
                            <rect id="ad-bar-background" fill="#343E48" x="0" y="0" width="40" height="6" rx="9"></rect>
                            <circle id="ad-bar-circle" fill="#82848A" cx="10" cy="3" r="1"></circle>
                            <circle id="ad-bar-circle" fill="#82848A" cx="7" cy="3" r="1"></circle>
                            <circle id="ad-bar-circle" fill="#82848A" cx="4" cy="3" r="1"></circle>
                        </g>
                        <path d="M0,3.0065012 C0,1.34605644 0.949316621,0.949316621 2.12233193,2.12233193 L37.8776681,37.8776681 C39.0497996,39.0497996 38.6576906,40 36.9934988,40 L3.0065012,40 C1.34605644,40 0,38.6576906 0,36.9934988 L0,3.0065012 Z" id="shadow" fill-opacity="0.049999997" fill="#000000" sketch:type="MSShapeGroup"></path>
                    </g>
                    <g id="right-shoot" transform="translate(111.000000, 39.000000)">
                        <path d="M21,18 L61,18 L75.1883059,37.8636283 C78.3980159,42.3572223 76.5274312,46 71.0095352,46 L10.9904648,46 C5.47288346,46 3.60439106,42.3538525 6.81169408,37.8636283 L21,18 Z" id="pipe-shoot" fill="#D9DDDD" sketch:type="MSShapeGroup"></path>
                        <rect id="pipe" fill="#D9DDDD" sketch:type="MSShapeGroup" x="21" y="0" width="40" height="18"></rect>
                        <rect id="pipe-join" fill="#63B55A" sketch:type="MSShapeGroup" x="19" y="14" width="44" height="4" rx="1"></rect>
                        <g id="shadow" transform="translate(5.000000, 0.000000)">
                            <mask id="mask-4" sketch:name="Mask" fill="white">
                                <use xlink:href="#path-3"></use>
                            </mask>
                            <use id="Mask" opacity="0" fill="#D9DDDD" sketch:type="MSShapeGroup" xlink:href="#path-3"></use>
                            <path d="M-2,0 L56,0 L56,9.01220703 L27.2099609,46 L-2,46 L-2,0 Z" fill-opacity="0.05" fill="#000000" sketch:type="MSShapeGroup" mask="url(#mask-4)"></path>
                        </g>
                    </g>
                    <g id="left-shoot" transform="translate(9.000000, 39.000000)">
                        <path d="M21,18 L61,18 L75.1883059,37.8636283 C78.3980159,42.3572223 76.5274312,46 71.0095352,46 L10.9904648,46 C5.47288346,46 3.60439106,42.3538525 6.81169408,37.8636283 L21,18 Z" id="pipe-shoot" fill="#D9DDDD" sketch:type="MSShapeGroup"></path>
                        <rect id="pipe" fill="#D9DDDD" sketch:type="MSShapeGroup" x="21" y="0" width="40" height="18"></rect>
                        <rect id="pipe-join" fill="#63B55A" sketch:type="MSShapeGroup" x="19" y="14" width="44" height="4" rx="1"></rect>
                        <g id="shadow" transform="translate(5.000000, 0.000000)">
                            <mask id="mask-6" sketch:name="Mask" fill="white">
                                <use xlink:href="#path-5"></use>
                            </mask>
                            <use id="Mask" opacity="0" fill="#D9DDDD" sketch:type="MSShapeGroup" xlink:href="#path-5"></use>
                            <path d="M-2,0 L56,0 L56,9.01220703 L27.2099609,46 L-2,46 L-2,0 Z" fill-opacity="0.05" fill="#000000" sketch:type="MSShapeGroup" mask="url(#mask-6)"></path>
                        </g>
                    </g>
                    <g id="machine-body" sketch:type="MSShapeGroup">
                        <path d="M0,0 L0,6.667 C0,25.076 14.924,40 33.333,40 L166.667,40 C185.076,40 200,25.076 200,6.667 L200,0 L0,0" fill="#DFE4E5"></path>
                        <g id="control-room" transform="translate(78.000000, 8.000000)">
                            <rect id="window-background" fill="#CBD6DF" x="0" y="0" width="44" height="24" rx="15"></rect>
                            <g id="ninja" transform="translate(14.000000, 2.000000)">
                                <path d="M0.16434,10.95444 C0.06414,10.87338 0,10.74924 0,10.61016 C0,10.36566 0.1974,10.16808 0.44064,10.16808 C0.56598,10.16808 0.67914,10.22058 0.75942,10.30488 L5.1399,14.70084 C5.23044,14.78178 5.2875,14.89962 5.2875,15.03102 C5.2875,15.27504 5.0901,15.4731 4.84686,15.4731 C4.70076,15.4731 4.57116,15.40164 4.491,15.2916 L0.1644,10.95444 L0.16434,10.95444 Z" id="sword" fill="#E05C46"></path>
                                <path d="M8.3718,18.56778 L7.49058,18.56778 C7.49058,19.78836 6.50406,20.77824 5.2875,20.77824 C4.07094,20.77824 3.08442,19.78842 3.08442,18.56778 L3.08442,16.35732 C2.1111,16.35732 1.32192,15.56556 1.32192,14.58894 C1.32192,13.61238 2.11104,12.82056 3.08442,12.82056 L12.77808,12.82056 C13.7514,12.82056 14.54058,13.61232 14.54058,14.58894 C14.54058,15.5655 13.75146,16.35732 12.77808,16.35732 L12.77808,18.56778 C12.77808,19.78836 11.79156,20.77824 10.575,20.77824 C9.35844,20.77824 8.37192,19.78842 8.37192,18.56778 L8.3718,18.56778 Z" id="body" fill="#292929"></path>
                                <g id="head" transform="translate(0.840000, 0.000000)">
                                    <path d="M13.70046,7.07346 C13.70046,10.73574 10.74126,13.70478 7.09116,13.70478 C3.44106,13.70478 0.48186,10.73568 0.48186,7.07346 C0.48186,3.41118 3.44106,0.44214 7.09116,0.44214 C10.74126,0.44214 13.70046,3.41124 13.70046,7.07346" id="face" fill="#FFE6CC"></path>
                                    <path d="M2.26902,12.82062 C3.5724,13.92228 5.25336,14.589 7.09116,14.589 C8.92854,14.589 10.6095,13.92234 11.91288,12.82062 L2.26902,12.82062" id="head-shadow" fill="#3D3E3E"></path>
                                    <path d="M14.01066,1.74936 C14.12172,1.69986 14.17146,1.569 14.12214,1.45758 C14.09172,1.38864 14.03052,1.34352 13.96266,1.33026 L13.69962,1.3263 C13.23564,1.3263 12.85938,0.96558 12.825,0.50886 L12.8193,0.22326 L12.8193,0.22104 C12.8193,0.099 12.7206,0 12.59898,0 C12.52938,0 12.46986,0.03402 12.42978,0.08442 L12.42804,0.084 L11.34498,1.4421 C10.1619,0.54114 8.69154,0 7.09122,0 C3.19746,0 0.04128,3.16668 0.04128,7.07346 C0.04128,10.98018 3.19746,14.14692 7.09122,14.14692 C10.98498,14.14692 14.14116,10.98024 14.14116,7.07346 C14.14116,5.33514 13.51374,3.74586 12.47736,2.51418 L14.01072,1.74936 L14.01066,1.74936 Z M12.79452,6.5487 C12.8082,6.7092 12.81918,6.87012 12.81918,7.03368 C12.81918,7.97664 12.58872,8.86392 12.18732,9.64866 C10.6068,9.95682 8.88972,9.24414 7.0911,9.24414 C5.29248,9.24414 3.5754,9.95676 1.99488,9.64866 C1.59348,8.86398 1.36302,7.9767 1.36302,7.03368 C1.36302,6.87012 1.37406,6.7092 1.38768,6.5487 C3.03342,6.01776 4.98888,5.70738 7.09104,5.70738 C9.19326,5.70738 11.14872,6.0177 12.7944,6.5487 L12.79452,6.5487 Z" fill="#292929"></path>
                                    <path d="M4.0068,7.07346 C3.5199,7.07346 3.12558,7.46958 3.12558,7.95762 C3.12558,8.44566 3.51996,8.84178 4.0068,8.84178 C4.49322,8.84178 4.88802,8.44566 4.88802,7.95762 C4.88802,7.46958 4.49322,7.07346 4.0068,7.07346" id="eye" fill="#292929"></path>
                                    <path d="M10.17552,8.84178 C10.66194,8.84178 11.05674,8.44566 11.05674,7.95762 C11.05674,7.46958 10.66194,7.07346 10.17552,7.07346 C9.6891,7.07346 9.2943,7.46958 9.2943,7.95762 C9.2943,8.44566 9.6891,8.84178 10.17552,8.84178" id="eye" fill="#292929"></path>
                                </g>
                            </g>
                            <path d="M5,18 L39,18 L39,21 L5,21 L5,18 Z" id="control-base" fill="#333E47"></path>
                            <path d="M17,15 L27,15 L27,18 L17,18 L17,15 Z" id="control-pad" fill="#333E47"></path>
                            <g id="button" transform="translate(29.000000, 16.000000)">
                                <path d="M3,1 C3,1.552 2.552,2 2,2 C1.448,2 1,1.552 1,1 C1,0.448 1.448,0 2,0 C2.552,0 3,0.448 3,1" fill="#E15C46"></path>
                                <path d="M0,1 L4,1 L4,2 L0,2 L0,1 Z" id="base" fill="#333E47"></path>
                            </g>
                            <g id="joystick" transform="translate(11.000000, 11.000000)">
                                <path d="M0,6 L3,6 L3,7 L0,7 L0,6 Z" id="base" fill="#333E47"></path>
                                <path d="M1,1 L2,1 L2,6 L1,6 L1,1 Z" id="stick" fill="#333E47"></path>
                                <path d="M3,1.5 C3,2.328 2.328,3 1.5,3 C0.672,3 0,2.328 0,1.5 C0,0.672 0.672,0 1.5,0 C2.328,0 3,0.672 3,1.5" id="handle" fill="#63B65A"></path>
                            </g>
                            <rect id="window-frame" stroke="#C6C8C6" stroke-width="3" x="0" y="0" width="44" height="24" rx="15"></rect>
                        </g>
                        <g id="right-decor-circle-copy" transform="translate(145.000000, 12.000000)">
                            <circle id="outer" fill="#C6C8C6" cx="7.5" cy="7.5" r="7.5"></circle>
                            <circle id="center" fill="#DEE3E4" cx="7.5" cy="7.5" r="5.5"></circle>
                            <circle id="inner" fill="#C6C8C6" cx="7.5" cy="7.5" r="3.5"></circle>
                        </g>
                        <g id="left-decor-circle" transform="translate(39.000000, 12.000000)">
                            <circle id="outer" fill="#C6C8C6" cx="7.5" cy="7.5" r="7.5"></circle>
                            <circle id="center" fill="#DEE3E4" cx="7.5" cy="7.5" r="5.5"></circle>
                            <circle id="inner" fill="#C6C8C6" cx="7.5" cy="7.5" r="3.5"></circle>
                        </g>
                        <path d="M0,6.667 C0,25.076 14.924,40 33.333,40 L139.440755,40 L179.078125,0 L0,0 L0,6.667 Z" id="shadow" fill-opacity="0.05" fill="#000000"></path>
                    </g>
                </g>
            </g>
        </g>
    </g>
</svg>