<svg width="250" height="350" viewBox="0 0 250 350" xmlns="http://www.w3.org/2000/svg">
	<path d="M132.186 334.935c-56.774 0-102.811 3.294-102.811 7.368 0 4.075 46.037 7.368 102.811 7.368 56.789 0 102.811-3.294 102.811-7.368 0-4.075-46.023-7.368-102.811-7.368" fill="#E5E5E5"/>

	<path class="path" d="M2.739 182.574c-1.67-1.351-2.739-3.42-2.739-5.738 0-4.075 3.29-7.368 7.344-7.368 2.089 0 3.975.875 5.313 2.28l73.008 73.266c1.509 1.349 2.46 3.313 2.46 5.503 0 4.067-3.29 7.368-7.344 7.368-2.435 0-4.595-1.191-5.931-3.025l-72.11-72.286z" fill="#F5C022"/>

	<path d="M139.53 309.463h-14.687c0 20.343-16.442 36.841-36.718 36.841-20.276 0-36.718-16.497-36.718-36.841v-36.841c-16.222 0-29.375-13.196-29.375-29.473 0-16.276 13.152-29.473 29.375-29.473h161.561c16.222 0 29.375 13.196 29.375 29.473 0 16.276-13.152 29.473-29.375 29.473v36.841c0 20.343-16.442 36.841-36.718 36.841-20.276 0-36.718-16.497-36.718-36.841z" fill="#292929"/>

	<path class="path" d="M51.406 279.99h161.561v14.736h-161.561v-14.736z" fill="#F5C022"/>

	<path d="M242.341 117.891c0 61.038-49.32 110.522-110.155 110.522s-110.155-49.485-110.155-110.522c0-61.038 49.32-110.522 110.155-110.522s110.155 49.485 110.155 110.522" fill="#FFE6CC"/>

	<path d="M51.817 213.677c21.723 18.361 49.739 29.473 80.369 29.473 30.623 0 58.639-11.111 80.362-29.473h-160.731" fill="#1A1A1A"/>

	<path d="M247.511 29.156c1.851-.825 2.68-3.006 1.858-4.863-.507-1.149-1.527-1.901-2.658-2.122l-4.384-.066c-7.733 0-14.004-6.012-14.577-13.624l-.095-4.76v-.037c0-2.034-1.645-3.684-3.672-3.684-1.16 0-2.152.567-2.82 1.407l-.029-.007-18.051 22.635c-19.718-15.016-44.224-24.035-70.896-24.035-64.896 0-117.499 52.778-117.499 117.891 0 65.112 52.603 117.891 117.499 117.891 64.896 0 117.499-52.778 117.499-117.891 0-28.972-10.457-55.46-27.73-75.988l25.556-12.747zm-20.269 79.989c.228 2.675.411 5.357.411 8.083 0 15.716-3.841 30.504-10.531 43.583-26.342 5.136-54.96-6.742-84.937-6.742-29.977 0-58.595 11.877-84.937 6.742-6.69-13.078-10.531-27.866-10.531-43.583 0-2.726.184-5.408.411-8.083 27.429-8.849 60.02-14.022 95.056-14.022 35.037 0 67.628 5.172 95.056 14.022z" fill="#292929"/>

	<path d="M80.78 117.891c-8.115 0-14.687 6.602-14.687 14.736s6.573 14.736 14.687 14.736c8.107 0 14.687-6.602 14.687-14.736s-6.58-14.736-14.687-14.736" fill="#292929"/>

	<path d="M183.592 147.363c8.107 0 14.687-6.602 14.687-14.736s-6.58-14.736-14.687-14.736-14.687 6.602-14.687 14.736 6.58 14.736 14.687 14.736" fill="#292929"/>
</svg>