<svg width="512" height="512" xmlns="http://www.w3.org/2000/svg" xmlns:sketch="http://www.bohemiancoding.com/sketch/ns"><title>Artboard 1</title><desc>Created with Sketch.</desc><path d="M256 0c-141.382 0-256 114.618-256 256 0 141.392 114.618 256 256 256 141.392 0 256-114.608 256-256 0-141.382-114.608-256-256-256zm52.909 471.462c-18.854-32.624-25.763-121.062-27.178-142.406 13.51-5.814 24.781-17.517 25.376-29.507l55.536 6.944c5.814 10.518 17.011 17.658 29.901 17.658 18.848 0 34.115-15.29 34.115-34.138 0-18.845-15.267-34.131-34.115-34.131-12.835 0-23.99 7.075-29.834 17.536l-55.597 6.944c-.256-6.157-2.659-12.531-6.55-18.413l41.824-32.522c2.41.544 4.909.851 7.472.851 18.851 0 34.141-15.277 34.141-34.131 0-18.848-15.29-34.131-34.141-34.131-18.848 0-34.122 15.283-34.122 34.131 0 4.054.749 7.926 2.029 11.533l-31.11 40c-6.362-4.502-13.664-7.61-21.11-8.429l6.992-55.907c10.474-5.824 17.603-17.011 17.603-29.866 0-18.851-15.293-34.128-34.141-34.128-18.851 0-34.131 15.277-34.131 34.128 0 12.854 7.107 24.042 17.606 29.866l6.992 55.907c-7.549.829-14.938 4.003-21.35 8.592l-30.998-39.859c1.36-3.69 2.15-7.661 2.15-11.837 0-18.848-15.29-34.125-34.141-34.125-18.848 0-34.128 15.277-34.128 34.125 0 18.854 15.28 34.131 34.128 34.131 2.493 0 4.902-.275 7.242-.781l41.952 32.637c-3.795 5.808-6.125 12.112-6.429 18.234l-55.616-6.95c-5.834-10.461-16.995-17.536-29.808-17.536-18.848 0-34.141 15.286-34.141 34.131 0 18.848 15.293 34.138 34.141 34.138 12.877 0 24.077-7.139 29.885-17.658l55.501-6.944c.426 13.59 11.642 24.515 25.072 29.84-1.424 21.904-8.198 109.52-27.03 142.022-96.88-23.802-168.768-111.197-168.768-215.411 0-122.531 99.341-221.872 221.872-221.872 122.544 0 221.859 99.341 221.859 221.872 0 104.294-71.962 191.738-168.95 215.462z" sketch:type="MSShapeGroup" fill="none"/></svg>