<?xml version="1.0" encoding="utf-8"?>
<!-- Generator: Adobe Illustrator 17.0.0, SVG Export Plug-In . SVG Version: 6.00 Build 0)  -->
<!DOCTYPE svg PUBLIC "-//W3C//DTD SVG 1.1//EN" "http://www.w3.org/Graphics/SVG/1.1/DTD/svg11.dtd">
<svg version="1.1" id="Vrstva_1" xmlns="http://www.w3.org/2000/svg" xmlns:xlink="http://www.w3.org/1999/xlink" x="0px" y="0px"
	 width="544.5px" height="464px" viewBox="30.333 0 544.5 464" enable-background="new 30.333 0 544.5 464" xml:space="preserve">
<g>
	<g>
		
			<line fill="none" stroke="#B4B5B8" stroke-width="3" stroke-linejoin="round" x1="30.667" y1="351.831" x2="40.667" y2="351.831"/>
		<path fill="none" stroke="#B4B5B8" stroke-width="3" stroke-linejoin="round" stroke-dasharray="20.0118,5.0029" d="
			M45.67,351.831h488.378c11.857,0,21.469,9.612,21.469,21.469v1.431c0,11.857-9.612,21.469-21.469,21.469H43.168"/>
		<line fill="none" stroke="#B4B5B8" stroke-width="3" stroke-linejoin="round" x1="40.667" y1="396.2" x2="30.667" y2="396.2"/>
	</g>
</g>
<rect x="491.774" y="391.524" fill="#FFFFFF" stroke="#41464C" stroke-width="4" stroke-linejoin="round" stroke-miterlimit="10" width="11.627" height="69.079"/>
<rect x="430.164" y="391.524" fill="#FFFFFF" stroke="#41464C" stroke-width="4" stroke-linejoin="round" stroke-miterlimit="10" width="11.627" height="69.079"/>
<rect x="126.004" y="391.524" fill="#FFFFFF" stroke="#41464C" stroke-width="4" stroke-linejoin="round" stroke-miterlimit="10" width="11.627" height="69.079"/>
<rect x="48.402" y="391.524" fill="#FFFFFF" stroke="#41464C" stroke-width="4" stroke-linejoin="round" stroke-miterlimit="10" width="11.627" height="69.079"/>
<path fill="#FFFFFF" stroke="#41464C" stroke-width="5" stroke-miterlimit="10" d="M533.261,355.122H32.979v37.693h500.282
	c10.073,0,18.239-8.166,18.239-18.239v-1.216C551.5,363.288,543.334,355.122,533.261,355.122z"/>
<line fill="none" stroke="#41464C" stroke-width="5" stroke-linejoin="round" stroke-miterlimit="10" x1="48.068" y1="444.546" x2="58.665" y2="444.546"/>
<line fill="none" stroke="#41464C" stroke-width="5" stroke-linejoin="round" stroke-miterlimit="10" x1="127.116" y1="444.546" x2="137.714" y2="444.546"/>
<line fill="none" stroke="#41464C" stroke-width="5" stroke-linejoin="round" stroke-miterlimit="10" x1="430.594" y1="444.546" x2="441.192" y2="444.546"/>
<line fill="none" stroke="#41464C" stroke-width="5" stroke-linejoin="round" stroke-miterlimit="10" x1="491.68" y1="444.546" x2="502.277" y2="444.546"/>
<circle fill="#FFFFFF" stroke="#B4B5B8" stroke-width="4" stroke-linejoin="round" stroke-miterlimit="10" cx="525.162" cy="373.617" r="6.864"/>
<circle fill="#FFFFFF" stroke="#B4B5B8" stroke-width="4" stroke-linejoin="round" stroke-miterlimit="10" cx="467.167" cy="373.617" r="6.864"/>
<circle fill="#FFFFFF" stroke="#B4B5B8" stroke-width="4" stroke-linejoin="round" stroke-miterlimit="10" cx="163.369" cy="373.617" r="6.864"/>
<circle fill="#FFFFFF" stroke="#B4B5B8" stroke-width="4" stroke-linejoin="round" stroke-miterlimit="10" cx="91.41" cy="373.617" r="6.864"/>
<circle fill="#FFFFFF" stroke="#B4B5B8" stroke-width="4" stroke-linejoin="round" stroke-miterlimit="10" cx="407.582" cy="373.617" r="6.864"/>
<polygon fill="#FFFFFF" stroke="#41464C" stroke-width="4" stroke-linejoin="round" stroke-miterlimit="10" points="159.215,101.45 
	145.404,123.485 154.004,96.663 "/>
<rect x="127.624" y="88.572" transform="matrix(-0.8511 -0.525 0.525 -0.8511 220.1495 245.6167)" fill="#FFFFFF" stroke="#41464C" stroke-width="4" stroke-linejoin="round" stroke-miterlimit="10" width="34.562" height="6.035"/>
<polygon fill="#FFFFFF" stroke="#41464C" stroke-width="4" stroke-linejoin="round" stroke-miterlimit="10" points="89.47,101.45 
	103.281,123.485 94.68,96.663 "/>
<rect x="86.491" y="88.575" transform="matrix(0.8511 -0.525 0.525 0.8511 -32.6349 68.1182)" fill="#FFFFFF" stroke="#41464C" stroke-width="4" stroke-linejoin="round" stroke-miterlimit="10" width="34.562" height="6.035"/>
<g>
	
		<path fill="#FFFFFF" stroke="#242424" stroke-width="4" stroke-linecap="round" stroke-linejoin="round" stroke-miterlimit="10" d="
		M90,236.968"/>
	<path fill="none" stroke="#41464C" stroke-width="4" stroke-linecap="round" stroke-linejoin="round" stroke-miterlimit="10" d="
		M110.347,267.04c-0.087-0.154-0.176-0.31-0.267-0.468c-2.85-4.935-14.612-19.945-18.951-27.458
		c-3.7-6.408-2.764-9.207-0.297-10.632l25.532-14.745"/>
	
		<path fill="#E5E5E5" stroke="#41464C" stroke-width="4" stroke-linecap="round" stroke-linejoin="round" stroke-miterlimit="10" d="
		M115.522,222.209c-2.313-4.901-1.327-7.218,0.843-8.472c3.867-2.233,6.841,2.237,7.649,3.636l-8.482,4.849"/>
	
		<path fill="#FFFFFF" stroke="#41464C" stroke-width="4" stroke-linecap="round" stroke-linejoin="round" stroke-miterlimit="10" d="
		M134.167,263.269l-20.339,11.72c-5.597,3.233-9.426-4.786-9.426-4.786l20.75-11.943
		C125.152,258.261,128.569,266.502,134.167,263.269c5.303-3.062,4.295-6.507,1.446-11.442S121,231.882,116.661,224.37
		c-0.445-0.771-0.824-1.49-1.14-2.161"/>
	
		<line fill="none" stroke="#B4B5B8" stroke-width="3" stroke-linecap="round" stroke-linejoin="round" stroke-miterlimit="10" x1="93.546" y1="235.667" x2="105.88" y2="228.543"/>
	
		<line fill="none" stroke="#B4B5B8" stroke-width="3" stroke-linecap="round" stroke-linejoin="round" stroke-miterlimit="10" x1="96.75" y1="239.852" x2="102.524" y2="236.518"/>
	
		<line fill="none" stroke="#B4B5B8" stroke-width="3" stroke-linecap="round" stroke-linejoin="round" stroke-miterlimit="10" x1="105.323" y1="234.902" x2="106.745" y2="234.081"/>
	
		<line fill="none" stroke="#B4B5B8" stroke-width="3" stroke-linecap="round" stroke-linejoin="round" stroke-miterlimit="10" x1="100.282" y1="244.2" x2="106.711" y2="240.487"/>
	
		<line fill="none" stroke="#B4B5B8" stroke-width="3" stroke-linecap="round" stroke-linejoin="round" stroke-miterlimit="10" x1="109.161" y1="239.072" x2="112.966" y2="236.875"/>
</g>
<rect x="32.625" y="8.003" fill="#FFFFFF" stroke="#41464C" stroke-width="4" stroke-miterlimit="10" width="82.567" height="14.672"/>
<rect x="117.164" y="18.179" fill="#FFFFFF" stroke="#41464C" stroke-width="4" stroke-linejoin="round" stroke-miterlimit="10" width="14.672" height="62.593"/>
<circle fill="#FFFFFF" stroke="#B4B5B8" stroke-width="4" stroke-linejoin="round" stroke-miterlimit="10" cx="124.5" cy="81.009" r="10.886"/>
<circle fill="#FFFFFF" stroke="#41464C" stroke-width="4" stroke-linejoin="round" stroke-miterlimit="10" cx="124.334" cy="80.926" r="4.689"/>
<circle fill="#FFFFFF" stroke="#41464C" stroke-width="4" stroke-linejoin="round" stroke-miterlimit="10" cx="124.5" cy="14.9" r="10.886"/>
<circle fill="#FFFFFF" stroke="#41464C" stroke-width="4" stroke-linejoin="round" stroke-miterlimit="10" cx="124.667" cy="14.984" r="4.689"/>
<line fill="none" stroke="#41464C" stroke-width="4" stroke-linecap="round" stroke-linejoin="round" stroke-miterlimit="10" x1="106.641" y1="164.186" x2="106.641" y2="185.936"/>
<line fill="none" stroke="#41464C" stroke-width="4" stroke-linecap="round" stroke-linejoin="round" stroke-miterlimit="10" x1="99.737" y1="173.4" x2="99.737" y2="183.936"/>
<line fill="none" stroke="#41464C" stroke-width="4" stroke-linecap="round" stroke-linejoin="round" stroke-miterlimit="10" x1="92.489" y1="177.795" x2="92.489" y2="186.436"/>
<line fill="none" stroke="#41464C" stroke-width="3" stroke-linecap="round" stroke-linejoin="round" stroke-miterlimit="10" x1="122.791" y1="32.022" x2="122.791" y2="41.962"/>
<line fill="none" stroke="#41464C" stroke-width="3" stroke-linecap="round" stroke-linejoin="round" stroke-miterlimit="10" x1="122.791" y1="47.01" x2="122.791" y2="51.112"/>
<g>
	
		<circle fill="#E8E8E8" stroke="#41464C" stroke-width="4" stroke-linecap="round" stroke-linejoin="round" stroke-miterlimit="10" cx="189.039" cy="316.28" r="10.609"/>
	
		<polygon fill="#FFFFFF" stroke="#41464C" stroke-width="4" stroke-linecap="round" stroke-linejoin="round" stroke-miterlimit="10" points="
		190.069,346.269 203.593,345.805 199.284,314.205 188.98,314.559 178.676,314.913 176.544,346.733 	"/>
	
		<text transform="matrix(0.9994 -0.0343 0.0343 0.9994 184.4833 335.8521)" fill="#93B92E" font-family="'BrandonGrotesque-Bold'" font-size="16.612">P</text>
	<circle fill="#41464C" cx="188.772" cy="308.803" r="1.182"/>
	<circle fill="#41464C" cx="192.368" cy="310.151" r="1.182"/>
	<circle fill="#41464C" cx="185.133" cy="310.4" r="1.182"/>
</g>
<g>
	
		<circle fill="#E8E8E8" stroke="#41464C" stroke-width="4" stroke-linecap="round" stroke-linejoin="round" stroke-miterlimit="10" cx="159.946" cy="307.71" r="10.365"/>
	
		<polygon fill="#FFFFFF" stroke="#41464C" stroke-width="4" stroke-linecap="round" stroke-linejoin="round" stroke-miterlimit="10" points="
		154.874,336.584 167.896,338.871 170.158,307.795 160.237,306.052 150.316,304.31 141.853,334.296 	"/>
	
		<text transform="matrix(0.9849 0.173 -0.173 0.9849 152.3483 324.3321)" fill="#93B92E" font-family="'BrandonGrotesque-Bold'" font-size="16.2298">S</text>
	<circle fill="#41464C" cx="161.258" cy="300.518" r="1.155"/>
	<circle fill="#41464C" cx="164.423" cy="302.533" r="1.155"/>
	<circle fill="#41464C" cx="157.457" cy="301.309" r="1.155"/>
</g>
<circle fill="#FFFFFF" stroke="#0093E1" stroke-width="2" stroke-linecap="round" stroke-linejoin="round" stroke-miterlimit="10" cx="423.154" cy="326.882" r="13.771"/>
<circle fill="none" stroke="#F8CA2F" stroke-width="3" stroke-linecap="round" stroke-linejoin="round" stroke-miterlimit="10" cx="423.115" cy="326.842" r="17.635"/>
<polygon fill="#E92121" stroke="#E92121" stroke-width="3" stroke-linecap="round" stroke-miterlimit="10" points="420.159,323.686 
	426.254,326.322 421.282,330.725 "/>
<rect x="215.895" y="423.821" fill="#FFFFFF" stroke="#41464C" stroke-width="4" stroke-linejoin="round" stroke-miterlimit="10" width="25.534" height="36.477"/>
<rect x="333.223" y="423.821" fill="#FFFFFF" stroke="#41464C" stroke-width="4" stroke-linejoin="round" stroke-miterlimit="10" width="25.534" height="36.477"/>
<line fill="none" stroke="#41464C" stroke-width="4" stroke-linecap="round" stroke-linejoin="round" stroke-miterlimit="10" x1="216.017" y1="435.635" x2="241.202" y2="435.635"/>
<line fill="none" stroke="#41464C" stroke-width="4" stroke-linecap="round" stroke-linejoin="round" stroke-miterlimit="10" x1="333.348" y1="435.635" x2="358.516" y2="435.635"/>
<polyline fill="none" stroke="#F8CA2F" stroke-width="3" stroke-linejoin="round" stroke-miterlimit="10" points="241.736,241.483 
	240.735,233.421 240.714,233.435 248.913,233.435 248.934,233.421 247.933,241.483 "/>
<ellipse fill="none" stroke="#41464C" stroke-width="4" stroke-linejoin="round" stroke-miterlimit="10" cx="244.482" cy="233.728" rx="9.917" ry="11.969"/>
<rect x="236.996" y="241.365" fill="#FFFFFF" stroke="#41464C" stroke-width="4" stroke-linejoin="round" stroke-miterlimit="10" width="15.047" height="8.435"/>
<rect x="231.069" y="247.749" fill="#FFFFFF" stroke="#0093E1" stroke-width="4" stroke-linejoin="round" stroke-miterlimit="10" width="26.902" height="8.435"/>
<rect x="367.588" y="276.275" fill="#FFFFFF" stroke="#41464C" stroke-width="3" stroke-linejoin="round" stroke-miterlimit="10" width="12.845" height="132.305"/>
<rect x="193.215" y="276.275" fill="#FFFFFF" stroke="#41464C" stroke-width="3" stroke-linejoin="round" stroke-miterlimit="10" width="12.845" height="132.305"/>
<rect x="200.44" y="256.296" fill="#FFFFFF" stroke="#41464C" stroke-width="5" stroke-linejoin="round" stroke-miterlimit="10" width="172.446" height="169.946"/>
<rect x="265.474" y="289.995" fill="none" stroke="#41464C" stroke-width="5" stroke-linejoin="round" stroke-miterlimit="10" width="69.763" height="36.705"/>
<rect x="259.546" y="391.232" fill="none" stroke="#41464C" stroke-width="4" stroke-linejoin="round" stroke-miterlimit="10" width="82.302" height="11.661"/>
<rect x="268.703" y="391.232" fill="none" stroke="#41464C" stroke-width="2" stroke-linejoin="round" stroke-miterlimit="10" width="10.715" height="11.661"/>
<rect x="279.419" y="391.232" fill="none" stroke="#41464C" stroke-width="2" stroke-linejoin="round" stroke-miterlimit="10" width="10.715" height="11.661"/>
<rect x="290.134" y="391.232" fill="none" stroke="#41464C" stroke-width="2" stroke-linejoin="round" stroke-miterlimit="10" width="10.715" height="11.661"/>
<rect x="300.821" y="391.232" fill="none" stroke="#41464C" stroke-width="2" stroke-linejoin="round" stroke-miterlimit="10" width="10.715" height="11.661"/>
<rect x="311.536" y="391.232" fill="none" stroke="#41464C" stroke-width="2" stroke-linejoin="round" stroke-miterlimit="10" width="10.715" height="11.661"/>
<rect x="322.28" y="391.232" fill="none" stroke="#41464C" stroke-width="2" stroke-linejoin="round" stroke-miterlimit="10" width="10.715" height="11.661"/>
<circle fill="none" stroke="#41464C" stroke-width="3" stroke-linejoin="round" stroke-miterlimit="10" cx="271.287" cy="361.499" r="9.347"/>
<path fill="none" stroke="#93B92E" stroke-width="3" stroke-linecap="round" stroke-linejoin="round" stroke-miterlimit="10" d="
	M266.06,362.649c0-1.754,0.483-3.396,1.324-4.799"/>
<rect x="231.424" y="311.093" fill="#FFFFFF" stroke="#B4B5B8" stroke-width="3" stroke-linejoin="round" stroke-miterlimit="10" width="6.953" height="13.109"/>
<rect x="217.62" y="310.946" fill="#FFFFFF" stroke="#B4B5B8" stroke-width="3" stroke-linejoin="round" stroke-miterlimit="10" width="6.953" height="13.109"/>
<rect x="231.424" y="291.843" fill="#FFFFFF" stroke="#B4B5B8" stroke-width="3" stroke-linejoin="round" stroke-miterlimit="10" width="6.953" height="13.109"/>
<rect x="217.62" y="291.696" fill="#FFFFFF" stroke="#F8CA2F" stroke-width="3" stroke-linejoin="round" stroke-miterlimit="10" width="6.953" height="13.109"/>
<rect x="214.557" y="346.611" fill="none" stroke="#41464C" stroke-width="3" stroke-linejoin="round" stroke-miterlimit="10" width="6.536" height="67.635"/>
<rect x="232.19" y="346.611" fill="#FFFFFF" stroke="#41464C" stroke-width="3" stroke-linejoin="round" stroke-miterlimit="10" width="6.536" height="67.635"/>
<rect x="212.278" y="378.681" fill="#FFFFFF" stroke="#E92121" stroke-width="4" stroke-linejoin="round" stroke-miterlimit="10" width="11.171" height="11.171"/>
<rect x="230.063" y="358.77" fill="#FFFFFF" stroke="#0093E1" stroke-width="4" stroke-linejoin="round" stroke-miterlimit="10" width="11.171" height="11.171"/>
<g>
	
		<line fill="none" stroke="#B4B5B8" stroke-width="3" stroke-linecap="round" stroke-linejoin="round" stroke-miterlimit="10" x1="274.555" y1="318.911" x2="289.913" y2="305.211"/>
	
		<line fill="none" stroke="#B4B5B8" stroke-width="3" stroke-linecap="round" stroke-linejoin="round" stroke-miterlimit="10" x1="303.657" y1="313.68" x2="290.418" y2="305.352"/>
	
		<circle fill="#FFFFFF" stroke="#F15B29" stroke-width="3" stroke-linecap="round" stroke-linejoin="round" stroke-miterlimit="10" cx="290.133" cy="304.849" r="2.855"/>
	
		<line fill="none" stroke="#B4B5B8" stroke-width="3" stroke-linecap="round" stroke-linejoin="round" stroke-miterlimit="10" x1="304.045" y1="313.468" x2="320.505" y2="299.88"/>
	
		<circle fill="#FFFFFF" stroke="#F15B29" stroke-width="3" stroke-linecap="round" stroke-linejoin="round" stroke-miterlimit="10" cx="320.714" cy="299.937" r="2.855"/>
	
		<circle fill="#FFFFFF" stroke="#F15B29" stroke-width="3" stroke-linecap="round" stroke-linejoin="round" stroke-miterlimit="10" cx="303.808" cy="314.015" r="2.539"/>
</g>
<line fill="none" stroke="#93B92E" stroke-width="3" stroke-linecap="round" stroke-linejoin="round" stroke-miterlimit="10" x1="294.485" y1="355.714" x2="298.745" y2="359.974"/>
<line fill="none" stroke="#93B92E" stroke-width="3" stroke-linecap="round" stroke-linejoin="round" stroke-miterlimit="10" x1="336.533" y1="356.056" x2="332.273" y2="360.316"/>
<circle fill="none" stroke="#41464C" stroke-width="3" stroke-linejoin="round" stroke-miterlimit="10" cx="301.381" cy="361.499" r="9.347"/>
<circle fill="none" stroke="#41464C" stroke-width="3" stroke-linejoin="round" stroke-miterlimit="10" cx="330.335" cy="361.499" r="9.347"/>
<line fill="none" stroke="#41464C" stroke-width="4" stroke-linejoin="round" stroke-miterlimit="10" x1="76.338" y1="22.943" x2="61.151" y2="7.756"/>
<line fill="none" stroke="#B4B5B8" stroke-width="5" stroke-linejoin="round" stroke-miterlimit="10" x1="30.667" y1="460.524" x2="530" y2="460.524"/>
<line fill="none" stroke="#B4B5B8" stroke-width="5" stroke-linecap="round" stroke-linejoin="round" stroke-miterlimit="10" x1="542.015" y1="460.524" x2="569.155" y2="460.524"/>
<line fill="none" stroke="#B4B5B8" stroke-width="5" stroke-linecap="round" stroke-linejoin="round" stroke-miterlimit="10" x1="504.515" y1="460.524" x2="531.655" y2="460.524"/>
</svg>
