<?xml version="1.0" encoding="utf-8"?>
<!-- Generator: Adobe Illustrator 17.0.0, SVG Export Plug-In . SVG Version: 6.00 Build 0)  -->
<!DOCTYPE svg PUBLIC "-//W3C//DTD SVG 1.1//EN" "http://www.w3.org/Graphics/SVG/1.1/DTD/svg11.dtd">
<svg version="1.1" id="Vrstva_1" xmlns="http://www.w3.org/2000/svg" xmlns:xlink="http://www.w3.org/1999/xlink" x="0px" y="0px"
	 width="446px" height="354.667px" viewBox="72.167 64.5 446 354.667" enable-background="new 72.167 64.5 446 354.667"
	 xml:space="preserve">
<circle fill="#FFFFFF" stroke="#0093E1" stroke-width="2" stroke-linecap="round" stroke-linejoin="round" stroke-miterlimit="10" cx="284.861" cy="295.985" r="13.771"/>
<circle fill="none" stroke="#F8CA2F" stroke-width="3" stroke-linecap="round" stroke-linejoin="round" stroke-miterlimit="10" cx="284.833" cy="295.936" r="17.635"/>
<polygon fill="#E92121" stroke="#E92121" stroke-width="3" stroke-linecap="round" stroke-miterlimit="10" points="282.794,292.123 
	288,296.245 282.06,299.213 "/>
<path fill="#FFFFFF" stroke="#41464C" stroke-width="4" stroke-linejoin="round" stroke-miterlimit="10" d="M322.604,400.527
	c0,3.119-2.529,5.648-5.648,5.648h-90.37c-3.119,0-5.648-2.529-5.648-5.648v-90.37c0-3.119,2.529-5.648,5.648-5.648h90.37
	c3.119,0,5.648,2.529,5.648,5.648V400.527z"/>
<path fill="#FFFFFF" stroke="#41464C" stroke-width="5" stroke-linejoin="round" stroke-miterlimit="10" d="M429.354,403.75
	c0,2.582-2.093,4.676-4.676,4.676h-74.815c-2.582,0-4.676-2.093-4.676-4.676v-74.815c0-2.582,2.093-4.676,4.676-4.676h74.815
	c2.582,0,4.676,2.093,4.676,4.676V403.75z"/>
<polygon fill="#FFFFFF" stroke="#41464C" stroke-width="4" stroke-linejoin="round" stroke-miterlimit="10" points="
	308.731,179.393 323.321,202.671 314.236,174.335 "/>
<rect x="305.587" y="165.801" transform="matrix(0.8511 -0.525 0.525 0.8511 -40.4997 195.1798)" fill="#FFFFFF" stroke="#41464C" stroke-width="4" stroke-linejoin="round" stroke-miterlimit="10" width="36.512" height="6.375"/>
<polygon fill="#FFFFFF" stroke="#41464C" stroke-width="4" stroke-linejoin="round" stroke-miterlimit="10" points="
	382.412,179.393 367.821,202.671 376.907,174.335 "/>
<rect x="349.031" y="165.794" transform="matrix(-0.8511 -0.525 0.525 -0.8511 591.1692 505.6284)" fill="#FFFFFF" stroke="#41464C" stroke-width="4" stroke-linejoin="round" stroke-miterlimit="10" width="36.512" height="6.375"/>
<line fill="none" stroke="#B4B5B8" stroke-width="3" stroke-linejoin="round" stroke-miterlimit="10" x1="237.833" y1="337.353" x2="273.333" y2="337.353"/>
<line fill="none" stroke="#B4B5B8" stroke-width="3" stroke-linejoin="round" stroke-miterlimit="10" x1="237.833" y1="349.603" x2="258.333" y2="349.603"/>
<line fill="none" stroke="#B4B5B8" stroke-width="3" stroke-linejoin="round" stroke-miterlimit="10" x1="297.333" y1="349.603" x2="305.583" y2="349.603"/>
<line fill="none" stroke="#B4B5B8" stroke-width="3" stroke-linejoin="round" stroke-miterlimit="10" x1="282.5" y1="361.603" x2="305.583" y2="361.603"/>
<line fill="none" stroke="#B4B5B8" stroke-width="3" stroke-linejoin="round" stroke-miterlimit="10" x1="268.417" y1="373.186" x2="305.583" y2="373.186"/>
<line fill="none" stroke="#B4B5B8" stroke-width="3" stroke-linejoin="round" stroke-miterlimit="10" x1="238.667" y1="361.603" x2="244" y2="361.603"/>
<rect x="393.238" y="71.296" fill="#FFFFFF" stroke="#41464C" stroke-width="4" stroke-linejoin="round" stroke-miterlimit="10" width="126.679" height="15.5"/>
<rect x="324.605" y="108.409" transform="matrix(-0.442 0.897 -0.897 -0.442 630.6715 -159.996)" fill="#FFFFFF" stroke="#41464C" stroke-width="4" stroke-linejoin="round" stroke-miterlimit="10" width="80.989" height="15.5"/>
<circle fill="#FFFFFF" stroke="#B4B5B8" stroke-width="4" stroke-linejoin="round" stroke-miterlimit="10" cx="345.405" cy="155.421" r="11.5"/>
<circle fill="#FFFFFF" stroke="#41464C" stroke-width="4" stroke-linejoin="round" stroke-miterlimit="10" cx="345.228" cy="155.509" r="4.954"/>
<circle fill="#FFFFFF" stroke="#41464C" stroke-width="4" stroke-linejoin="round" stroke-miterlimit="10" cx="383.405" cy="78.582" r="11.5"/>
<circle fill="#FFFFFF" stroke="#41464C" stroke-width="4" stroke-linejoin="round" stroke-miterlimit="10" cx="383.228" cy="78.671" r="4.954"/>
<line fill="none" stroke="#41464C" stroke-width="3" stroke-linecap="round" stroke-linejoin="round" stroke-miterlimit="10" x1="373.577" y1="95.652" x2="369.059" y2="105.13"/>
<line fill="none" stroke="#41464C" stroke-width="3" stroke-linecap="round" stroke-linejoin="round" stroke-miterlimit="10" x1="366.764" y1="109.944" x2="364.899" y2="113.856"/>
<rect x="218.181" y="297.519" fill="#FFFFFF" stroke="#41464C" stroke-width="5" stroke-linejoin="round" stroke-miterlimit="10" width="107.75" height="25"/>
<rect x="218.181" y="384.019" fill="#FFFFFF" stroke="#41464C" stroke-width="5" stroke-linejoin="round" stroke-miterlimit="10" width="107.75" height="23.5"/>
<line fill="none" stroke="#41464C" stroke-width="4" stroke-linejoin="round" stroke-miterlimit="10" x1="238.181" y1="323.519" x2="238.181" y2="384.019"/>
<line fill="none" stroke="#41464C" stroke-width="4" stroke-linejoin="round" stroke-miterlimit="10" x1="307.181" y1="322.769" x2="307.181" y2="384.019"/>
<line fill="none" stroke="#41464C" stroke-width="4" stroke-linejoin="round" stroke-miterlimit="10" x1="238.181" y1="367.019" x2="291.681" y2="323.019"/>
<line fill="none" stroke="#41464C" stroke-width="4" stroke-linejoin="round" stroke-miterlimit="10" x1="254.473" y1="384.144" x2="307.973" y2="340.144"/>
<line fill="none" stroke="#B4B5B8" stroke-width="3" stroke-linejoin="round" stroke-miterlimit="10" x1="362.431" y1="351.019" x2="412.681" y2="351.019"/>
<line fill="none" stroke="#B4B5B8" stroke-width="3" stroke-linejoin="round" stroke-miterlimit="10" x1="362.431" y1="391.519" x2="409.931" y2="391.519"/>
<line fill="none" stroke="#B4B5B8" stroke-width="3" stroke-linejoin="round" stroke-miterlimit="10" x1="361.431" y1="371.269" x2="412.431" y2="371.269"/>
<line fill="none" stroke="#41464C" stroke-width="5" stroke-linejoin="round" stroke-miterlimit="10" x1="360.681" y1="326.519" x2="360.681" y2="407.269"/>
<line fill="none" stroke="#41464C" stroke-width="5" stroke-linejoin="round" stroke-miterlimit="10" x1="412.431" y1="325.519" x2="412.431" y2="407.019"/>
<path fill="none" stroke="#41464C" stroke-width="3" stroke-linejoin="round" stroke-miterlimit="10" d="M399.431,336.644
	c0,1.45-1.175,2.625-2.625,2.625h-19.75c-1.45,0-2.625-1.175-2.625-2.625l0,0c0-1.45,1.175-2.625,2.625-2.625h19.75
	C398.256,334.019,399.431,335.195,399.431,336.644L399.431,336.644z"/>
<line fill="none" stroke="#41464C" stroke-width="5" stroke-linecap="round" stroke-linejoin="round" stroke-miterlimit="10" x1="227.917" y1="307.186" x2="243.583" y2="307.186"/>
<line fill="none" stroke="#B4B5B8" stroke-width="5" stroke-linecap="round" stroke-linejoin="round" stroke-miterlimit="10" x1="248.292" y1="391.061" x2="263.958" y2="391.061"/>
<circle fill="#E8E8E8" stroke="#41464C" stroke-width="2" stroke-miterlimit="10" cx="311.271" cy="392.249" r="1.375"/>
<circle fill="#E8E8E8" stroke="#41464C" stroke-width="2" stroke-miterlimit="10" cx="317.771" cy="399.269" r="1.375"/>
<circle fill="#E8E8E8" stroke="#41464C" stroke-width="2" stroke-miterlimit="10" cx="311.271" cy="306.499" r="1.375"/>
<circle fill="#E8E8E8" stroke="#41464C" stroke-width="2" stroke-miterlimit="10" cx="317.771" cy="313.519" r="1.375"/>
<circle fill="#E8E8E8" stroke="#41464C" stroke-width="2" stroke-miterlimit="10" cx="226.792" cy="392.249" r="1.375"/>
<circle fill="#E8E8E8" stroke="#41464C" stroke-width="2" stroke-miterlimit="10" cx="233.292" cy="399.269" r="1.375"/>
<line fill="none" stroke="#41464C" stroke-width="4" stroke-linejoin="round" stroke-miterlimit="10" x1="434.912" y1="86.436" x2="450.099" y2="71.249"/>
<line fill="none" stroke="#41464C" stroke-width="4" stroke-linejoin="round" stroke-miterlimit="10" x1="492.995" y1="86.436" x2="508.182" y2="71.249"/>
<path fill="none" stroke="#41464C" stroke-width="4" stroke-linejoin="round" stroke-miterlimit="10" d="M506.729,71.249"/>
<path fill="none" stroke="#41464C" stroke-width="4" stroke-linejoin="round" stroke-miterlimit="10" d="M491.542,86.436"/>
<line fill="none" stroke="#B4B5B8" stroke-width="5" stroke-linecap="round" stroke-linejoin="round" stroke-miterlimit="10" x1="518.667" y1="412.519" x2="114.662" y2="412.519"/>
<line fill="none" stroke="#B4B5B8" stroke-width="5" stroke-linecap="round" stroke-linejoin="round" stroke-miterlimit="10" x1="105.667" y1="412.519" x2="76.995" y2="412.519"/>
</svg>
