<?xml version="1.0" encoding="UTF-8" standalone="no"?>
<svg width="450px" height="450px" viewBox="0 0 450 450" version="1.1" xmlns="http://www.w3.org/2000/svg" xmlns:xlink="http://www.w3.org/1999/xlink" xmlns:sketch="http://www.bohemiancoding.com/sketch/ns">
    <!-- Generator: Sketch 3.3.2 (12043) - http://www.bohemiancoding.com/sketch -->
    <title>Artboard 1</title>
    <desc>Created with Sketch.</desc>
    <defs></defs>
    <g id="Page-1" stroke="none" stroke-width="1" fill="none" fill-rule="evenodd" sketch:type="MSPage">
        <g id="Artboard-1" sketch:type="MSArtboardGroup" opacity="0.1">
            <path d="M43.1542118,207.904406 C43.1542118,213.523444 41.7621404,217.737722 41.7621404,223.35676 C41.7621404,252.85671 48.7224972,280.951899 61.2511393,306.23757 C111.365708,316.070887 165.65649,293.594735 222.731416,293.594735 C279.806341,293.594735 334.097123,316.070887 384.211692,306.23757 C396.740334,280.951899 403.700691,252.85671 403.700691,223.35676 C403.700691,217.737722 403.700691,213.523444 402.308619,207.904406 C350.801979,191.047292 288.158769,181.213975 222.731416,181.213975 C157.304062,181.213975 94.6608516,191.047292 43.1542118,207.904406 L43.1542118,207.904406 Z M125.286421,280.951899 C109.973636,280.951899 97.4449943,268.309064 97.4449943,252.85671 C97.4449943,237.404355 109.973636,224.76152 125.286421,224.76152 C140.599206,224.76152 153.127848,237.404355 153.127848,252.85671 C153.127848,268.309064 140.599206,280.951899 125.286421,280.951899 L125.286421,280.951899 Z M320.17641,224.76152 C335.489195,224.76152 348.017837,237.404355 348.017837,252.85671 C348.017837,268.309064 335.489195,280.951899 320.17641,280.951899 C304.863625,280.951899 292.334983,268.309064 292.334983,252.85671 C292.334983,237.404355 304.863625,224.76152 320.17641,224.76152 L320.17641,224.76152 Z" id="Shape" sketch:type="MSShapeGroup"></path>
            <path d="M441.286617,56.1903799 C445.462831,54.7856204 446.854902,50.5713419 445.462831,46.3570634 C444.07076,43.5475444 442.678688,42.1427849 439.894546,42.1427849 L431.542118,42.1427849 C416.229333,42.1427849 405.092762,30.9047089 403.700691,16.857114 L403.700691,8.42855698 L403.700691,8.42855698 C403.700691,2.80951899 400.916548,0 396.740334,0 C393.956191,0 392.56412,1.4047595 391.172049,2.80951899 L391.172049,2.80951899 L356.370265,46.3570634 C320.17641,16.857114 272.845984,0 222.731416,0 C100.229137,0 0,101.142684 0,224.76152 C0,348.380355 100.229137,449.523039 222.731416,449.523039 C345.233694,449.523039 445.462831,348.380355 445.462831,224.76152 C445.462831,169.975899 425.973832,119.404557 392.56412,80.0712914 L441.286617,56.1903799 L441.286617,56.1903799 Z M402.308619,207.904406 C402.308619,213.523444 403.700691,217.737722 403.700691,223.35676 C403.700691,252.85671 396.740334,280.951899 384.211692,306.23757 C334.097123,316.070887 279.806341,293.594735 222.731416,293.594735 C165.65649,293.594735 111.365708,316.070887 61.2511393,306.23757 C48.7224972,280.951899 41.7621404,252.85671 41.7621404,223.35676 C41.7621404,217.737722 41.7621404,213.523444 43.1542118,207.904406 C94.6608516,191.047292 157.304062,181.213975 222.731416,181.213975 C288.158769,181.213975 350.801979,191.047292 402.308619,207.904406 L402.308619,207.904406 Z" id="Shape" fill="#139DE5" sketch:type="MSShapeGroup"></path>
            <ellipse id="Oval" fill="#139DE5" sketch:type="MSShapeGroup" cx="125.286421" cy="252.85671" rx="27.8414269" ry="28.0951899"></ellipse>
            <ellipse id="Oval" fill="#139DE5" sketch:type="MSShapeGroup" cx="320.17641" cy="252.85671" rx="27.8414269" ry="28.0951899"></ellipse>
        </g>
    </g>
</svg>