<?xml version="1.0" encoding="UTF-8" standalone="no"?>
<svg width="546px" height="240px" viewBox="0 0 546 240" version="1.1" xmlns="http://www.w3.org/2000/svg" xmlns:xlink="http://www.w3.org/1999/xlink" xmlns:sketch="http://www.bohemiancoding.com/sketch/ns">
    <!-- Generator: Sketch 3.3.2 (12043) - http://www.bohemiancoding.com/sketch -->
    <title>Artboard 1</title>
    <desc>Created with Sketch.</desc>
    <defs></defs>
    <g id="Page-1" stroke="none" stroke-width="1" fill="none" fill-rule="evenodd" sketch:type="MSPage">
        <g id="Artboard-1" sketch:type="MSArtboardGroup" fill="#229EE0" opacity="0.100000001">
            <path d="M543.953927,30.3800015 L543.953927,0 L542.131127,0 L542.131127,30.3800015 L536.358926,30.3800015 L536.358926,25.6711013 L529.675326,25.6711013 L529.675326,30.3800015 L524.055026,30.3800015 L524.055026,174.685009 L508.865025,174.685009 L508.865025,167.090008 L493.675024,167.090008 L493.675024,174.685009 L489.725624,174.685009 L486.080024,113.925006 L478.485023,113.925006 L478.485023,107.241405 L474.687523,107.241405 L474.687523,104.355305 L468.915323,104.355305 L467.092523,77.7728038 L465.269723,104.355305 L459.497523,104.355305 L459.497523,107.241405 L455.700022,107.241405 L455.700022,113.925006 L448.105022,113.925006 L444.003722,182.280009 L440.510022,182.280009 L440.510022,167.090008 L433.066921,167.090008 L433.066921,159.495008 L434.434021,159.495008 C435.649221,159.495008 436.712521,158.431708 436.712521,157.216508 L436.712521,154.178508 C436.712521,152.963308 435.649221,151.900007 434.434021,151.900007 L421.522521,151.900007 C421.522521,143.545507 414.68702,136.710007 406.33252,136.710007 C397.97802,136.710007 391.142519,143.545507 391.142519,151.900007 L378.382919,151.900007 C377.167719,151.900007 376.104418,152.963308 376.104418,154.178508 L376.104418,157.216508 C376.104418,158.431708 377.167719,159.495008 378.382919,159.495008 L379.750019,159.495008 L379.750019,197.47001 L372.155018,197.47001 L372.155018,189.875009 L356.965018,189.875009 L356.965018,197.47001 L354.990317,197.47001 L354.990317,178.786309 L356.509318,178.786309 C357.724518,178.786309 358.787818,177.723009 358.787818,176.507809 L358.787818,173.469809 C358.787818,172.254608 357.724518,171.191308 356.509318,171.191308 L312.762115,171.191308 C311.546915,171.191308 310.483615,172.254608 310.483615,173.469809 L310.483615,176.507809 C310.483615,177.723009 311.546915,178.786309 312.762115,178.786309 L314.281115,178.786309 L314.281115,202.02701 L289.369514,202.02701 L273.268113,154.938008 L257.166713,202.02701 L232.407011,202.02701 L232.407011,178.786309 L233.926011,178.786309 C235.141212,178.786309 236.204512,177.723009 236.204512,176.507809 L236.204512,173.469809 C236.204512,172.254608 235.141212,171.191308 233.926011,171.191308 L190.178809,171.191308 C188.963609,171.191308 187.900309,172.254608 187.900309,173.469809 L187.900309,176.507809 C187.900309,177.723009 188.963609,178.786309 190.178809,178.786309 L191.697809,178.786309 L191.697809,197.47001 L189.875009,197.47001 L189.875009,189.875009 L174.685009,189.875009 L174.685009,197.47001 L167.090008,197.47001 L167.090008,159.495008 L168.457108,159.495008 C169.672308,159.495008 170.735608,158.431708 170.735608,157.216508 L170.735608,154.178508 C170.735608,152.963308 169.672308,151.900007 168.457108,151.900007 L155.545608,151.900007 C155.545608,143.545507 148.710107,136.710007 140.355607,136.710007 C132.001106,136.710007 125.165606,143.545507 125.165606,151.900007 L112.254106,151.900007 C111.038905,151.900007 109.975605,152.963308 109.975605,154.178508 L109.975605,157.216508 C109.975605,158.431708 111.038905,159.495008 112.254106,159.495008 L113.621206,159.495008 L113.621206,167.090008 L106.330005,167.090008 L106.330005,182.280009 L102.836305,182.280009 L98.7350048,113.925006 L91.1400045,113.925006 L91.1400045,107.241405 L87.3425043,107.241405 L87.3425043,104.355305 L81.570304,104.355305 L79.7475039,77.7728038 L77.9247038,104.355305 L72.1525035,104.355305 L72.1525035,107.241405 L68.3550034,107.241405 L68.3550034,113.925006 L60.760003,113.925006 L57.1144028,174.685009 L53.1650026,174.685009 L53.1650026,167.090008 L37.9750019,167.090008 L37.9750019,174.685009 L22.7850011,174.685009 L22.7850011,30.3800015 L17.0128008,30.3800015 L17.0128008,25.6711013 L10.4811005,25.6711013 L10.4811005,30.3800015 L4.70890023,30.3800015 L4.70890023,1.6189717e-14 L2.88610014,1.6189717e-14 L2.88610014,30.3800015 L0,30.3800015 L0,240.002012 L546.840027,240.002012 L546.840027,30.3800015 L543.953927,30.3800015 L543.953927,30.3800015 Z" id="Shape" sketch:type="MSShapeGroup"></path>
        </g>
    </g>
</svg>