<?xml version="1.0" encoding="UTF-8" standalone="no"?>
<svg width="450px" height="450px" viewBox="0 0 450 450" version="1.1" xmlns="http://www.w3.org/2000/svg" xmlns:xlink="http://www.w3.org/1999/xlink" xmlns:sketch="http://www.bohemiancoding.com/sketch/ns">
    <!-- Generator: Sketch 3.3.2 (12043) - http://www.bohemiancoding.com/sketch -->
    <title>Artboard 1</title>
    <desc>Created with Sketch.</desc>
    <defs></defs>
    <g id="Page-1" stroke="none" stroke-width="1" fill="none" fill-rule="evenodd" sketch:type="MSPage">
        <g id="Artboard-1" sketch:type="MSArtboardGroup" fill="#54B073" opacity="0.1">
            <path d="M225,0 C100.738125,0 0,100.738125 0,225 C0,349.270312 100.738125,450 225,450 C349.270312,450 450,349.270312 450,225 C450,100.738125 349.270312,0 225,0 L225,0 Z M271.501875,414.37125 C254.930625,385.697812 248.858437,307.96875 247.615312,289.209375 C259.489687,284.099062 269.395312,273.81375 269.918437,263.275312 L318.729375,269.378437 C323.839687,278.623125 333.680625,284.897812 345.009375,284.897812 C361.575,284.897812 374.993437,271.459687 374.993437,254.894062 C374.993437,238.33125 361.575,224.895937 345.009375,224.895937 C333.728437,224.895937 323.924062,231.114375 318.788437,240.308437 L269.924062,246.411562 C269.699062,241.000312 267.586875,235.397812 264.166875,230.228437 L300.92625,201.645 C303.044062,202.123125 305.240625,202.393125 307.493437,202.393125 C324.061875,202.393125 337.5,188.96625 337.5,172.395 C337.5,155.829375 324.061875,142.396875 307.493437,142.396875 C290.927812,142.396875 277.50375,155.829375 277.50375,172.395 C277.50375,175.958438 278.161875,179.361562 279.286875,182.53125 L251.94375,217.6875 C246.3525,213.730312 239.934375,210.999375 233.389688,210.279375 L239.535,161.142188 C248.740312,156.023437 255.006562,146.190937 255.006562,134.893125 C255.006562,118.324687 241.565625,104.897812 225,104.897812 C208.431562,104.897812 195.001875,118.324687 195.001875,134.893125 C195.001875,146.190937 201.248437,156.023437 210.47625,161.142188 L216.621562,210.279375 C209.986875,211.007812 203.492812,213.797812 197.856562,217.830937 L170.611875,182.798438 C171.807187,179.555625 172.501875,176.065313 172.501875,172.395 C172.501875,155.829375 159.06375,142.4025 142.495313,142.4025 C125.929688,142.4025 112.5,155.829375 112.5,172.395 C112.5,188.96625 125.929688,202.393125 142.495313,202.393125 C144.68625,202.393125 146.804063,202.15125 148.86,201.706875 L185.731875,230.391562 C182.39625,235.49625 180.34875,241.036875 180.081562,246.417187 L131.200312,240.308437 C126.073125,231.114375 116.263125,224.895937 105.001875,224.895937 C88.43625,224.895937 74.9953125,238.33125 74.9953125,254.894062 C74.9953125,271.459687 88.43625,284.897812 105.001875,284.897812 C116.319375,284.897812 126.163125,278.623125 131.267812,269.378437 L180.047812,263.275312 C180.421875,275.22 190.279687,284.821875 202.08375,289.501875 C200.832188,308.753437 194.878125,385.759687 178.326562,414.32625 C93.178125,393.406875 29.9953125,316.594687 29.9953125,225 C29.9953125,117.306562 117.306563,29.9953125 225,29.9953125 C332.704687,29.9953125 419.993438,117.306562 419.993438,225 C419.993438,316.665 356.745937,393.519375 271.501875,414.37125 L271.501875,414.37125 Z" id="logo" sketch:type="MSShapeGroup"></path>
        </g>
    </g>
</svg>